<?xml version="1.0" standalone="no"?>
<!DOCTYPE svg PUBLIC "-//W3C//DTD SVG 20010904//EN"
 "http://www.w3.org/TR/2001/REC-SVG-20010904/DTD/svg10.dtd">
<svg version="1.0" xmlns="http://www.w3.org/2000/svg"
 width="1000.000000pt" height="1000.000000pt" viewBox="0 0 1000.000000 1000.000000"
 preserveAspectRatio="xMidYMid meet">
<metadata>
Created by potrace 1.14, written by Peter Selinger 2001-2017
</metadata>
<g transform="translate(0.000000,1000.000000) scale(0.100000,-0.100000)"
fill="#000000" stroke="none">
<path d="M6149 7926 c-25 -6 -65 -24 -90 -38 -58 -36 -1144 -953 -1181 -998
-15 -20 -38 -63 -50 -95 l-23 -60 -3 -859 c-3 -829 -3 -858 -21 -842 -10 9
-45 27 -77 39 -59 22 -62 22 -783 25 -782 3 -793 2 -883 -51 -21 -12 -293
-237 -606 -499 -624 -523 -608 -507 -637 -645 -12 -55 -15 -186 -15 -678 0
-335 5 -677 10 -760 18 -266 74 -546 147 -730 241 -614 866 -1017 1753 -1129
320 -41 929 -47 1280 -12 598 59 1084 216 1387 448 129 99 1219 1027 1280
1089 209 216 333 519 378 924 21 189 22 4549 1 4638 -29 118 -93 190 -202 226
-63 21 -77 21 -842 20 -582 0 -788 -3 -823 -13z m1627 -89 c32 -10 67 -33 92
-57 78 -78 72 117 72 -2386 0 -2393 1 -2320 -50 -2559 -66 -302 -168 -497
-360 -686 -236 -233 -637 -409 -1110 -489 -305 -51 -568 -70 -975 -70 -338 0
-512 9 -765 41 -651 80 -1140 294 -1395 611 -147 183 -219 351 -274 639 -36
189 -42 381 -39 1179 4 849 0 814 78 884 75 68 64 67 866 64 709 -3 720 -3
764 -24 57 -27 94 -67 117 -124 16 -41 18 -104 23 -670 4 -408 10 -636 17
-656 33 -94 89 -167 154 -200 187 -94 682 -93 846 2 47 27 95 91 127 168 l21
51 5 2050 c5 1939 6 2052 23 2095 35 87 105 137 216 150 36 4 388 7 781 6 645
-2 720 -4 766 -19z"/>
<path d="M6920 5308 c0 -1157 -4 -1822 -10 -1893 -19 -198 -68 -347 -162 -491
-216 -329 -581 -455 -1318 -455 -451 1 -746 50 -985 167 -192 93 -337 254
-425 473 -66 163 -80 295 -80 769 l0 333 -42 -3 -43 -3 -3 -300 c-7 -695 49
-928 277 -1156 194 -194 545 -324 966 -359 165 -13 566 -13 720 1 431 37 732
153 901 345 174 199 261 410 284 691 6 80 10 776 10 1894 l0 1769 -45 0 -45 0
0 -1782z"/>
</g>
</svg>
